<svg xmlns="http://www.w3.org/2000/svg" width="1024" height="1024" viewBox="0 0 1024 1024"><rect width="1024" height="1024" fill="#12171d"/><path d="M0 790H1024M0 650H1024M0 510H1024M0 370H1024M180 0V1024M360 0V1024M540 0V1024M720 0V1024M900 0V1024" stroke="#1c2b35" stroke-width="2"/><circle cx="790" cy="245" r="190" fill="#008fff" opacity=".08"/><circle cx="790" cy="245" r="125" fill="none" stroke="#00d4aa" stroke-width="3" opacity=".65"/><circle cx="790" cy="245" r="67" fill="none" stroke="#008fff" stroke-width="3" opacity=".85"/><path d="M790 195c-28 0-50 22-50 50 0 38 50 89 50 89s50-51 50-89c0-28-22-50-50-50Zm0 68a18 18 0 1 1 0-36 18 18 0 0 1 0 36Z" fill="#00d4aa"/><rect x="88" y="104" width="102" height="6" rx="3" fill="#00d4aa"/><text x="88" y="285" fill="#f5f7fa" font-family="Arial,Helvetica,sans-serif" font-size="72" font-weight="700" letter-spacing="-2">CONSISTENCY</text><text x="88" y="370" fill="#f5f7fa" font-family="Arial,Helvetica,sans-serif" font-size="72" font-weight="700" letter-spacing="-2">BUILDS</text><text x="88" y="455" fill="#00d4aa" font-family="Arial,Helvetica,sans-serif" font-size="72" font-weight="700" letter-spacing="-2">LOCAL DEMAND.</text><text x="92" y="535" fill="#aebbc5" font-family="Arial,Helvetica,sans-serif" font-size="27" letter-spacing="1">SHOW UP. STAY USEFUL. GET REMEMBERED.</text><path d="M92 744h840" stroke="#31434e" stroke-width="2"/><text x="92" y="835" fill="#f5f7fa" font-family="Arial,Helvetica,sans-serif" font-size="38" font-weight="700">MetroReach Media</text><text x="92" y="884" fill="#7f929e" font-family="Arial,Helvetica,sans-serif" font-size="22" letter-spacing="2">SOCIAL MEDIA MARKETING</text><circle cx="918" cy="846" r="10" fill="#008fff"/><circle cx="950" cy="846" r="10" fill="#00d4aa"/></svg>